<?xml version="1.0" encoding="utf-8"?>
<!-- Generator: Adobe Illustrator 16.0.0, SVG Export Plug-In . SVG Version: 6.00 Build 0)  -->
<!DOCTYPE svg PUBLIC "-//W3C//DTD SVG 1.1//EN" "http://www.w3.org/Graphics/SVG/1.1/DTD/svg11.dtd">
<svg version="1.1" id="Layer_1" xmlns="http://www.w3.org/2000/svg" xmlns:xlink="http://www.w3.org/1999/xlink" x="0px" y="0px"
	 width="136px" height="131px" viewBox="0 0 136 131" enable-background="new 0 0 136 131" xml:space="preserve">
<g>
	<g>
		<path fill-rule="evenodd" clip-rule="evenodd" fill="#FEFEFE" d="M71.754,1.99c26.184,0,52.37,0,78.556,0
			c0,42.72,0,85.439,0,128.16c-8.524,0-17.047,0-25.569,0c-0.146-0.667,0.252-0.814,1.405-1.238
			c0.931-0.342,1.967-0.831,2.007-1.859c0.423-0.077,0.848-0.155,1.43-0.263c0-0.66,0-1.307,0-1.953
			c0.011-0.399,0.033-0.799,0.033-1.198c0.001-35.781,0.001-71.563-0.001-107.345c0-0.438-0.047-0.877-0.071-1.315
			c-0.261-0.507-0.519-1.014-0.779-1.521c-0.148-0.328-0.208-0.71-0.466-0.973c-0.497-0.503-0.937-1.196-2.043-0.846
			c-0.387-0.265-0.772-0.529-1.159-0.793c-0.222-0.876-0.979-0.994-1.936-0.833c-0.873-0.021-1.741-0.06-2.611-0.061
			c-12.88-0.004-25.763-0.019-38.64,0.019c-1.461,0.004-1.978-0.497-2.447-1.476c-0.715-1.485-1.362-3.074-3.384-3.898
			c-0.755-0.538-1.476-1.11-2.278-1.603C73.17,2.609,72.44,2.321,71.754,1.99z"/>
		<path fill-rule="evenodd" clip-rule="evenodd" fill="#FDFDFD" d="M11.376,130.15c-8.523,0-17.046,0-25.568,0
			c0-42.721,0-85.44,0-128.16c25.466,0,50.932,0,76.396,0c-0.617,0.636-1.235,1.273-1.853,1.91
			c-0.327,0.091-0.758,0.108-0.962,0.285c-1.015,0.877-1.832,1.927-2.987,2.659c-0.907,0.576-1.03,1.173-0.942,1.912
			c0.112,0.959-0.415,1.226-1.608,1.213c-4.458-0.047-8.916-0.024-13.373-0.018c-9.274,0.013-18.548,0.031-27.821,0.047
			c-2.172-0.429-3.117,1.154-4.667,1.744c-0.05,0.02,0.014,0.222,0.025,0.339c-0.424,0.525-1.082,1.014-1.225,1.583
			c-0.284,1.114-0.38,2.272-0.38,3.413c-0.019,27.995-0.015,55.99-0.015,83.985c0,7.639-0.011,15.277,0.027,22.916
			c0.004,0.848,0.008,1.815,0.503,2.518c0.967,1.371,2.407,2.474,4.468,2.91C11.389,129.654,11.383,129.902,11.376,130.15z"/>
		<path fill-rule="evenodd" clip-rule="evenodd" d="M12.659,9.999c9.273-0.016,18.547-0.035,27.821-0.047
			c4.457-0.006,8.915-0.029,13.373,0.018c1.193,0.013,1.72-0.254,1.608-1.213c-0.087-0.739,0.036-1.336,0.942-1.912
			c1.155-0.732,1.972-1.782,2.987-2.659c0.204-0.177,0.635-0.194,0.962-0.285c0.752-0.034,1.872,0.158,2.179-0.147
			c0.652-0.647,1.372-0.551,2.149-0.558c1.96-0.019,3.921-0.021,5.884-0.031c2.134-0.084,3.713,0.803,5.355,1.725
			c0.014-0.025,0.087-0.158,0.158-0.291c2.021,0.824,2.669,2.414,3.384,3.898c0.47,0.979,0.986,1.48,2.447,1.476
			c12.877-0.038,25.76-0.023,38.64-0.019c0.87,0,1.738,0.04,2.611,0.061c-0.23,1.512,0.993,0.974,1.936,0.833
			c0.387,0.264,0.772,0.528,1.159,0.793c0.657,0.772,1.314,1.545,1.969,2.318c-0.043,0.719,0.329,1.112,1.319,1.021
			c0.024,0.438,0.071,0.877,0.071,1.315c0.002,35.782,0.002,71.563,0.001,107.345c0,0.399-0.022,0.799-0.033,1.198
			c-1.314,0.411-1.482,1.271-1.43,2.216c-0.04,1.028-1.076,1.518-2.007,1.859c-1.153,0.424-1.552,0.571-1.405,1.238
			c-0.103,0-0.204,0-0.309,0c-0.406-0.067-0.813-0.135-1.22-0.201c-0.308-0.016-0.613-0.045-0.917-0.045
			c-35.655,0.001-71.308,0.009-106.96-0.015c-1.313-0.001-2.627-0.315-3.94-0.483c-2.061-0.437-3.501-1.539-4.468-2.91
			c-0.496-0.702-0.499-1.67-0.503-2.518c-0.038-7.639-0.027-15.277-0.027-22.916c0-27.995-0.004-55.99,0.015-83.985
			c0-1.14,0.097-2.298,0.38-3.413c0.144-0.568,0.801-1.058,1.225-1.583c1.813,0.09,2.88-1.061,4.318-1.595
			C12.503,10.424,12.554,10.167,12.659,9.999z M74.442,8.957c0.235-0.908-0.813-1.07-1.423-1.484
			c-1.203-0.411-2.364-0.951-3.616-1.207c-2.573-0.524-4.922-0.304-6.652,1.573c-0.51,0.554-1.355,0.92-2.047,1.372
			c-1.086,0.327-0.708,0.875-0.351,1.418c-0.033,0.152-0.064,0.305-0.097,0.457c-1.681,0.14-1.258,1.185-1.406,1.985
			c-1.396,1.273-3.29,0.903-5.058,0.915c-2.412,0.016-4.823,0.004-7.235,0.004c-1.416,0-2.832,0-4.223,0c0,4.086,0,8.02,0,11.913
			c17.158,0,34.213,0,51.182,0c0-4.023,0-7.959,0-11.913c-4.213,0-8.318,0.006-12.421-0.004c-1.632-0.004-3.347,0.259-4.708-0.769
			c-0.246-1.014-0.491-2.028-0.738-3.042C75.84,9.412,75.532,8.948,74.442,8.957z M124.355,124.851
			c0.023-0.519,0.073-1.037,0.073-1.555c0.003-35.426,0.003-70.852,0.001-106.277c0-1.842-1.518-3.027-3.883-3.028
			c-6.773-0.002-13.55-0.002-20.325,0.001c-0.444,0-0.893,0.032-1.471,0.054c0,4.741,0,9.412,0,14.082
			c-1.24,0.27-2.033,0.889-2.381,1.854c-0.614,0.016-1.229,0.045-1.841,0.045c-13.34,0.003-26.678,0.005-40.016,0
			c-4.924-0.002-9.847-0.023-14.771-0.036c0.009-1.366-1.375-0.683-2.154-0.888c-0.193-5.001-0.387-10.002-0.582-15.053
			c-7.981,0-16.024,0-24.067,0c-1.08-0.063-1.343,0.493-1.451,1.165c-0.021,0.599-0.059,1.198-0.059,1.797
			c-0.003,35.296-0.003,70.593-0.001,105.889c0,0.52-0.066,1.051,0.049,1.555c0.073,0.322,0.424,0.605,0.65,0.907l-0.003-0.002
			c0.68,1.206,2.061,0.64,3.091,0.641c35.164,0.034,70.327,0.028,105.493,0.026c0.717,0,1.434-0.03,2.152-0.046
			C123.357,125.605,123.856,125.228,124.355,124.851z"/>
		<path fill-rule="evenodd" clip-rule="evenodd" fill="#BFBFBF" d="M11.395,129.406c1.313,0.168,2.626,0.482,3.94,0.483
			c35.652,0.023,71.305,0.016,106.96,0.015c0.304,0,0.609,0.029,0.917,0.045c0.003,0.067,0,0.134-0.012,0.201
			c-37.275,0-74.55,0-111.824,0C11.383,129.902,11.389,129.654,11.395,129.406z"/>
		<path fill-rule="evenodd" clip-rule="evenodd" fill="#0C0C0C" d="M70.564,3.164c-1.963,0.009-3.924,0.012-5.884,0.031
			c-0.777,0.007-1.498-0.089-2.149,0.558c-0.308,0.305-1.427,0.114-2.179,0.147c0.618-0.637,1.236-1.273,1.853-1.91
			c2.772,0,5.545,0,8.319,0C70.537,2.381,70.551,2.772,70.564,3.164z"/>
		<path fill-rule="evenodd" clip-rule="evenodd" fill="#2C2C2C" d="M70.564,3.164c-0.014-0.391-0.027-0.782-0.041-1.173
			c0.411,0,0.819,0,1.23,0C72.44,2.321,73.17,2.609,73.8,2.995c0.803,0.492,1.523,1.065,2.278,1.603
			c-0.071,0.133-0.145,0.266-0.158,0.291C74.277,3.967,72.698,3.079,70.564,3.164z"/>
		<path fill-rule="evenodd" clip-rule="evenodd" fill="#DFEAD9" d="M123.2,130.15c0.012-0.067,0.015-0.134,0.012-0.201
			c0.406,0.066,0.813,0.134,1.22,0.201C124.021,130.15,123.611,130.15,123.2,130.15z"/>
		<path fill-rule="evenodd" clip-rule="evenodd" fill="#5B5B5B" d="M128.224,13.957c-0.654-0.773-1.312-1.546-1.969-2.318
			c1.106-0.351,1.546,0.342,2.043,0.846c0.258,0.262,0.317,0.645,0.466,0.973C128.585,13.624,128.403,13.791,128.224,13.957z"/>
		<path fill-rule="evenodd" clip-rule="evenodd" fill="#5B5B5B" d="M128.152,127.053c-0.053-0.945,0.115-1.805,1.43-2.216
			c0,0.646,0,1.293,0,1.953C129,126.897,128.575,126.976,128.152,127.053z"/>
		<path fill-rule="evenodd" clip-rule="evenodd" fill="#404040" d="M125.096,10.846c-0.942,0.142-2.166,0.679-1.936-0.833
			C124.116,9.852,124.874,9.969,125.096,10.846z"/>
		<path fill-rule="evenodd" clip-rule="evenodd" fill="#404040" d="M128.224,13.957c0.18-0.167,0.361-0.333,0.54-0.5
			c0.261,0.507,0.519,1.014,0.779,1.521C128.553,15.069,128.181,14.676,128.224,13.957z"/>
		<path fill-rule="evenodd" clip-rule="evenodd" fill="#5B5B5B" d="M12.659,9.999c-0.104,0.167-0.155,0.425-0.324,0.488
			c-1.438,0.535-2.504,1.685-4.318,1.595c-0.011-0.117-0.075-0.32-0.025-0.339C9.542,11.153,10.486,9.57,12.659,9.999z"/>
		<path fill-rule="evenodd" clip-rule="evenodd" fill="#FDFDFD" d="M39.743,29.992c4.924,0.013,9.847,0.034,14.771,0.036
			c13.337,0.005,26.676,0.002,40.016,0c0.612,0,1.227-0.029,1.841-0.045c1.16,0.05,2.341-0.87,2.381-1.854c0-4.67,0-9.341,0-14.082
			c0.578-0.022,1.026-0.054,1.471-0.054c6.775-0.003,13.552-0.003,20.325-0.001c2.365,0.001,3.883,1.186,3.883,3.028
			c0.002,35.426,0.002,70.852-0.001,106.277c0,0.518-0.05,1.036-0.073,1.555c-1.219-0.199-1.654,0.229-1.495,1.132
			c-0.719,0.016-1.436,0.046-2.152,0.046c-35.166,0.002-70.329,0.008-105.493-0.026c-1.031-0.001-2.411,0.565-3.091-0.642
			c0.221-0.058,0.441-0.115,0.662-0.173c-0.044-0.069-0.088-0.14-0.131-0.209c-0.175,0.128-0.352,0.256-0.527,0.385
			c-0.227-0.302-0.577-0.585-0.65-0.907c-0.115-0.504-0.049-1.035-0.049-1.555c-0.001-35.296-0.001-70.592,0.001-105.889
			c0-0.599,0.039-1.198,0.059-1.797c1.157,0.121,1.71-0.214,1.451-1.165c8.043,0,16.086,0,24.067,0
			c0.194,5.051,0.388,10.052,0.582,15.053C37.704,30.287,38.782,30.053,39.743,29.992z M113.06,22.592
			c-0.119-0.861-0.903-0.651-1.588-0.6c-1.628,0-3.257,0-4.888,0c-2.546-0.132-3.052,0.438-2.628,3.003
			c0.342,0.021,0.696,0.043,1.047,0.065c0.817,1.47,2.61,0.688,3.938,1.013c0,29.304,0,58.591,0,87.863c-27.408,0-54.729,0-82.032,0
			c0-29.352,0-58.609,0-87.913c1.275-0.135,2.72,0.303,3.551-0.796c0.515-0.139,1.336-0.168,1.492-0.434
			c0.811-1.384-0.414-2.731-2.429-2.805c-1.83,0.004-3.659,0.007-5.488,0.011c-0.643-0.06-1.494-0.34-1.149,0.653
			c-0.362,0.811-1.039,1.622-1.041,2.434c-0.054,29.945-0.046,59.891-0.046,89.836c0,0.28-0.029,0.563,0.007,0.839
			c0.162,1.234,1.498,2.185,3.093,2.185c28.481,0.003,56.961,0.003,85.442-0.007c0.428,0,0.868-0.11,1.279-0.222
			c0.494-0.134,0.964-0.323,1.445-0.489c0.972-0.101,1.411-0.483,1.102-1.262c0.017-0.318,0.045-0.638,0.045-0.957
			c0.002-30.027,0.002-60.054,0-90.081c0-0.358-0.036-0.717-0.058-1.076C114.574,23.019,113.654,22.891,113.06,22.592z
			 M69.29,83.069c-1.379-0.379-1.208,0.383-1.222,1.009c0,0.687,0,1.373,0,2.111c0.438,0.03,0.817,0.057,1.197,0.083
			c0.525,0.239,1.048,0.68,1.575,0.686c4.967,0.053,9.943,0.184,14.899-0.012c4.791-0.189,9.694,0.882,14.375-0.683
			c1.913-0.222,1.038-1.362,1.175-2.168c-0.032-0.339-0.063-0.678-0.104-1.11c-0.873,0-1.653,0-2.435,0
			c-7.523,0.002-15.047-0.001-22.569,0.011c-1.89,0.003-3.778,0.05-5.666,0.076C70.106,83.071,69.7,83.07,69.29,83.069z
			 M68.992,46.417c-1.748,0.617-0.706,1.786-1.006,2.713c0.512,0.131,0.914,0.234,1.317,0.337c0.634,0.174,1.266,0.497,1.899,0.5
			c8.357,0.034,16.715,0.028,25.071,0.017c1.241-0.001,2.619,0.297,3.498-0.755c0.515-0.139,1.339-0.167,1.494-0.434
			c0.813-1.386-0.412-2.735-2.431-2.807c-9.531,0.003-19.061,0.007-28.591,0.011C69.826,46.139,69.409,46.278,68.992,46.417z
			 M68.991,64.415c-1.747,0.618-0.705,1.787-1.007,2.716c0.513,0.131,0.916,0.233,1.319,0.337c0.634,0.174,1.266,0.497,1.899,0.499
			c8.357,0.034,16.715,0.028,25.071,0.017c1.241-0.002,2.619,0.297,3.498-0.755c0.515-0.138,1.339-0.167,1.494-0.434
			c0.813-1.387-0.411-2.736-2.431-2.807c-9.531,0.003-19.061,0.006-28.591,0.01C69.826,64.137,69.409,64.276,68.991,64.415z
			 M45.844,76.988c-0.88,0.022-2.05-0.73-2.457,0.557c-0.224-0.063-0.605-0.218-0.649-0.173c-1.113,1.138-3.106,1.827-3.053,3.566
			c-1.423-0.264-1.926,0.731-2.069,1.324c-0.642,2.63-0.668,5.247,1.638,7.517c2.371,2.791,5.694,2.865,8.409,3.171
			c0.546,0.062,1.235-0.64,1.776-0.574c2.141,0.26,3.524-0.571,4.728-1.736c0.397-0.385,0.667-0.85,0.997-1.278
			c0.697-0.235,1.309-0.447,1.289-1.227c-0.015-0.62,0.043-1.516,0.539-1.811c1.065-0.637,0.716-1.418,0.564-2.04
			c-0.327-1.336-0.972-2.625-1.445-3.829c-0.635-0.335-1.263-0.665-1.89-0.996c-0.328-0.293-0.653-0.587-0.98-0.88
			c0.152-0.181,0.303-0.361,0.388-0.463c-1.437-1.031-3.021-1.574-4.94-1.14C47.739,76.98,46.792,76.984,45.844,76.988z
			 M57.581,67.028c-0.015-2.714-0.942-5.132-3.726-6.945c-0.09-0.335-0.077-0.909-0.291-0.966c-1.625-0.435-3.295-0.769-4.952-1.134
			c-0.896,0.005-1.792,0.01-2.69,0.015c-1.608-0.216-3.031-0.036-3.99,1.135c-0.333,0.273-0.671,0.543-1.001,0.818
			c-0.925,0.769-2.066,1.444-2.706,2.338c-0.606,0.848-1.006,1.942-0.921,2.897c0.143,1.633,0.287,3.431,1.241,4.822
			c1.608,2.342,4.5,3.722,7.953,3.925c1.777,0.104,3.929,0.079,5.334-0.606c1.908-0.932,3.262-2.551,4.854-3.876
			C57.925,68.854,57.627,67.914,57.581,67.028z M49.824,40.01c-3.376-0.291-6.544-0.018-9.042,2.042
			c-0.88,0.726-1.969,1.369-2.558,2.219c-0.593,0.858-0.994,1.941-0.923,2.901c0.117,1.601,0.224,3.368,1.148,4.731
			c1.62,2.391,4.517,3.826,8.04,4.029c1.781,0.103,3.934,0.081,5.339-0.605c1.91-0.931,3.266-2.552,4.857-3.877
			c1.239-0.596,0.942-1.537,0.896-2.422c-0.012-2.714-0.948-5.129-3.719-6.947C53.776,41.142,51.462,39.956,49.824,40.01z"/>
		<path fill-rule="evenodd" clip-rule="evenodd" fill="#FDFDFD" d="M76.388,13.217c1.361,1.028,3.076,0.765,4.708,0.769
			c4.103,0.01,8.208,0.004,12.421,0.004c0,3.954,0,7.89,0,11.913c-16.969,0-34.023,0-51.182,0c0-3.894,0-7.827,0-11.913
			c1.391,0,2.807,0,4.223,0c2.412,0,4.824,0.012,7.235-0.004c1.768-0.011,3.662,0.358,5.058-0.915
			c0.439-0.028,0.878-0.057,1.406-0.09c0-0.667,0-1.281,0-1.895c0.033-0.152,0.064-0.305,0.097-0.457
			c0.117-0.473,0.235-0.946,0.351-1.418c0.692-0.452,1.538-0.818,2.047-1.372c1.729-1.877,4.079-2.098,6.652-1.573
			c1.252,0.256,2.413,0.795,3.616,1.207c0.146,0.601-0.542,1.593,1.135,1.484c0.093,0.375,0.186,0.75,0.279,1.125
			c0.398,1.252,0.795,2.503,1.246,3.924C76.005,13.645,76.197,13.431,76.388,13.217z"/>
		<path fill-rule="evenodd" clip-rule="evenodd" fill="#BFBFBF" d="M76.388,13.217c-0.19,0.214-0.383,0.427-0.708,0.789
			c-0.451-1.421-0.848-2.672-1.247-3.924c0.406,0.031,0.81,0.062,1.217,0.093C75.896,11.189,76.142,12.204,76.388,13.217z"/>
		<path fill-rule="evenodd" clip-rule="evenodd" fill="#404040" d="M60.256,11.086c0,0.614,0,1.228,0,1.895
			c-0.528,0.034-0.967,0.062-1.406,0.09C58.999,12.271,58.576,11.227,60.256,11.086z"/>
		<path fill-rule="evenodd" clip-rule="evenodd" fill="#383838" d="M98.751,28.128c-0.04,0.984-1.221,1.905-2.381,1.854
			C96.718,29.017,97.511,28.398,98.751,28.128z"/>
		<path fill-rule="evenodd" clip-rule="evenodd" fill="#8F8F8F" d="M75.649,10.176c-0.407-0.031-0.811-0.062-1.217-0.093
			c-0.093-0.375-0.186-0.75-0.278-1.126l0.144-0.018l0.145,0.018C75.532,8.948,75.84,9.412,75.649,10.176z"/>
		<path fill-rule="evenodd" clip-rule="evenodd" fill="#383838" d="M39.743,29.992c-0.961,0.061-2.039,0.295-2.154-0.888
			C38.368,29.309,39.751,28.626,39.743,29.992z"/>
		<path fill-rule="evenodd" clip-rule="evenodd" fill="#BFBFBF" d="M74.442,8.957l-0.145-0.018l-0.144,0.018
			c-1.677,0.108-0.988-0.883-1.135-1.484C73.629,7.887,74.678,8.048,74.442,8.957z"/>
		<path fill-rule="evenodd" clip-rule="evenodd" fill="#C1C1C1" d="M12.94,14.051c0.259,0.951-0.294,1.286-1.451,1.165
			C11.597,14.544,11.86,13.988,12.94,14.051z"/>
		<path fill-rule="evenodd" clip-rule="evenodd" fill="#C1C1C1" d="M122.86,125.982c-0.159-0.903,0.276-1.331,1.495-1.132
			C123.856,125.228,123.357,125.605,122.86,125.982z"/>
		<path fill-rule="evenodd" clip-rule="evenodd" fill="#404040" d="M60.704,9.211c-0.116,0.473-0.234,0.946-0.351,1.418
			C59.996,10.085,59.618,9.538,60.704,9.211z"/>
		<path fill-rule="evenodd" clip-rule="evenodd" d="M24.036,22c1.829-0.004,3.658-0.007,5.488-0.011
			c0.054,0.23,0.021,0.613,0.175,0.666c1.76,0.605,1.091,1.614,0.762,2.572c-0.831,1.099-2.275,0.661-3.551,0.796
			c0,29.304,0,58.562,0,87.913c27.304,0,54.624,0,82.032,0c0-29.272,0-58.56,0-87.863c-1.328-0.325-3.121,0.458-3.938-1.013
			c0-0.671,0-1.343,0-2.014c0.143,0.047,0.283,0.093,0.423,0.14c0.385-0.398,0.771-0.796,1.158-1.194c1.631,0,3.26,0,4.888,0
			c-0.086,0.75,0.432,0.96,1.285,0.87c0.241,0.523,0.421,1.098,1.397,0.992c0.021,0.359,0.058,0.718,0.058,1.076
			c0.002,30.027,0.002,60.054,0,90.081c0,0.319-0.028,0.639-0.045,0.957c-1.279-0.063-1.119,0.638-1.102,1.262
			c-0.481,0.166-0.951,0.355-1.445,0.489c-0.411,0.111-0.852,0.222-1.279,0.222c-28.48,0.01-56.961,0.01-85.442,0.007
			c-1.595,0-2.931-0.95-3.093-2.185c-0.036-0.276-0.007-0.559-0.007-0.839c0-29.945-0.008-59.891,0.046-89.836
			c0.002-0.812,0.679-1.623,1.041-2.434C23.269,22.436,23.653,22.218,24.036,22z"/>
		<path fill-rule="evenodd" clip-rule="evenodd" fill="#6BA04F" d="M53.863,42.082c2.771,1.818,3.707,4.233,3.719,6.947
			c-0.402,0.234-1.094,0.436-1.145,0.709c-0.102,0.55,0.146,1.14,0.249,1.713c-1.592,1.325-2.948,2.946-4.857,3.877
			c-1.406,0.686-3.559,0.708-5.339,0.605c-3.522-0.204-6.42-1.639-8.04-4.029c-0.924-1.363-1.031-3.13-1.148-4.731
			c-0.07-0.96,0.33-2.043,0.923-2.901c0.588-0.851,1.678-1.493,2.558-2.219c2.498-2.06,5.667-2.333,9.042-2.042
			c0.343,0.359,0.603,0.92,1.048,1.032c0.767,0.193,1.766-0.094,1.998,0.882C52.894,42.021,53.518,42.031,53.863,42.082z
			 M53.806,45.249c-0.396-0.25-0.795-0.499-1.193-0.749c-0.391,0.004-0.784,0.009-1.176,0.014c-0.498,0.104-1.143,0.091-1.466,0.335
			c-0.921,0.697-1.714,1.499-2.556,2.26c-0.221,0.157-0.442,0.314-0.662,0.472c-0.409,0.315-0.818,0.63-1.227,0.945
			c-1.106-0.144-2.213-0.288-3.319-0.432c-0.917-0.144-1.249,0.141-1.256,0.872c-0.005,0.693,0.09,1.18,1.188,1.055
			c0.123,0.145,0.244,0.288,0.366,0.433c-0.607,1.044,0.394,0.685,0.984,0.684l-0.051,0.056l0.048-0.056
			c-0.655,1.329,1.627,0.796,1.722,1.65c0.725-0.277,1.449-0.555,2.326-0.892c-0.39-0.238-0.583-0.355-0.775-0.473
			c1.579-1.198,3.157-2.397,4.736-3.595c0.442-0.244,0.853-0.644,1.332-0.701c1.106-0.133,1.11-0.636,0.959-1.273
			C53.792,45.651,53.799,45.45,53.806,45.249z"/>
		<path fill-rule="evenodd" clip-rule="evenodd" fill="#6BA04E" d="M45.922,57.998c0.897-0.005,1.793-0.01,2.69-0.015
			c0.332,0.306,0.588,0.722,1.01,0.896c1.113,0.461,2.809-0.153,3.509,1.153c0.043,0.081,0.474,0.037,0.724,0.051
			c2.784,1.813,3.711,4.231,3.726,6.945c-0.401,0.234-1.093,0.436-1.144,0.71c-0.102,0.55,0.145,1.14,0.248,1.712
			c-1.591,1.325-2.946,2.944-4.854,3.876c-1.406,0.686-3.557,0.711-5.334,0.606c-3.452-0.203-6.344-1.583-7.953-3.925
			c-0.954-1.391-1.098-3.188-1.241-4.822c-0.084-0.955,0.315-2.049,0.921-2.897c0.64-0.894,1.781-1.569,2.706-2.338
			c0.33-0.275,0.668-0.545,1.001-0.818c0.813-0.013,1.624-0.033,2.437-0.036C45.317,59.093,45.938,58.823,45.922,57.998z
			 M53.806,63.248c-0.396-0.25-0.794-0.499-1.192-0.749c-0.393,0.004-0.786,0.009-1.178,0.013c-0.498,0.104-1.142,0.09-1.466,0.335
			c-0.922,0.697-1.714,1.499-2.558,2.26c-0.219,0.158-0.441,0.314-0.661,0.472c-0.408,0.315-0.818,0.63-1.227,0.945
			c-1.106-0.145-2.212-0.288-3.32-0.432c-0.918-0.146-1.249,0.142-1.256,0.872c-0.006,0.693,0.089,1.181,1.189,1.056
			c0.122,0.145,0.244,0.288,0.366,0.433c-0.61,1.047,0.395,0.683,0.983,0.684l-0.051,0.056l0.048-0.056
			c-0.655,1.329,1.629,0.796,1.723,1.649c0.724-0.277,1.449-0.555,2.326-0.892c-0.39-0.238-0.582-0.355-0.775-0.473
			c1.579-1.198,3.158-2.397,4.738-3.596c0.441-0.244,0.852-0.644,1.331-0.701c1.105-0.133,1.109-0.636,0.959-1.272
			C53.793,63.651,53.8,63.449,53.806,63.248z"/>
		<path fill-rule="evenodd" clip-rule="evenodd" d="M70.244,63.998c9.53-0.004,19.06-0.007,28.591-0.01
			c0.058,0.229,0.025,0.612,0.182,0.666c1.758,0.609,1.099,1.615,0.755,2.575c-0.879,1.052-2.257,0.753-3.498,0.755
			c-8.356,0.012-16.714,0.018-25.071-0.017c-0.634-0.002-1.266-0.325-1.899-0.499c0.005-0.779,0.012-1.558,0.017-2.337
			C69.628,64.753,69.937,64.375,70.244,63.998z"/>
		<path fill-rule="evenodd" clip-rule="evenodd" d="M99.771,49.229c-0.879,1.052-2.257,0.753-3.498,0.755
			c-8.356,0.012-16.714,0.018-25.071-0.017c-0.634-0.002-1.266-0.325-1.899-0.5c0.006-0.778,0.013-1.557,0.02-2.335
			c0.307-0.377,0.616-0.755,0.922-1.133c9.53-0.004,19.06-0.007,28.591-0.011c0.056,0.229,0.024,0.612,0.18,0.666
			C100.776,47.262,100.108,48.269,99.771,49.229z"/>
		<path fill-rule="evenodd" clip-rule="evenodd" d="M70.517,83.072c1.888-0.026,3.776-0.073,5.666-0.076
			c7.522-0.012,15.046-0.009,22.569-0.011c0.445,0.375,0.888,0.751,1.335,1.126c0.009,0.718,0.018,1.435,0.028,2.152
			c-4.681,1.564-9.584,0.493-14.375,0.683c-4.956,0.195-9.933,0.064-14.899,0.012c-0.527-0.006-1.05-0.446-1.575-0.686
			c-0.061-0.786-0.124-1.571-0.185-2.356l0.078-0.028C70.32,84.334,70.587,83.875,70.517,83.072z"/>
		<path fill-rule="evenodd" clip-rule="evenodd" fill="#0C0C0C" d="M55.162,89.361c-0.329,0.429-0.599,0.894-0.997,1.278
			c-1.204,1.165-2.586,1.996-4.728,1.736c-0.541-0.065-1.23,0.636-1.776,0.574c-2.715-0.306-6.038-0.38-8.409-3.171
			c0.513-0.227,1.026-0.454,1.578-0.698c-1.442-0.561-1.468-0.84-0.234-1.728c0.161,0.185,0.364,0.355,0.473,0.557
			c1.128,2.084,3.454,2.846,6.041,3.077c2.745,0.245,4.509-1.191,6.157-2.651C53.823,88.762,54.039,89.571,55.162,89.361z"/>
		<path fill-rule="evenodd" clip-rule="evenodd" fill="#0C0C0C" d="M53.239,78.579c0.327,0.293,0.652,0.587,0.98,0.88
			c-0.126,0.521-0.252,1.043-0.377,1.565c-0.4-0.021-0.799-0.041-1.197-0.062l-0.007-0.004c-0.022-0.303-0.047-0.604-0.075-0.941
			c-0.559,0-1.011,0-1.461,0c-0.714-0.239-1.429-0.479-2.143-0.717c-1.137-0.024-2.274-0.048-3.411-0.072
			c-1.559-0.046-2.495,0.675-3.359,1.565c-0.411,0.424-1.028,0.726-1.551,1.082c-0.318-0.313-0.637-0.625-0.955-0.938
			c-0.053-1.739,1.94-2.429,3.053-3.566c0.044-0.045,0.425,0.11,0.649,0.173c0.357-0.005,0.741,0.053,1.066-0.029
			c0.485-0.124,0.929-0.347,1.391-0.527c0.948-0.004,1.896-0.008,2.843-0.012c0.366,0.196,0.703,0.447,1.104,0.578
			C50.926,77.923,52.087,78.241,53.239,78.579z"/>
		<path fill-rule="evenodd" clip-rule="evenodd" fill="#030303" d="M53.842,81.024c0.125-0.522,0.25-1.044,0.377-1.565
			c0.627,0.331,1.255,0.661,1.89,0.996c0.473,1.204,1.118,2.493,1.445,3.829c0.152,0.622,0.501,1.403-0.564,2.04
			c-0.496,0.295-0.554,1.19-0.539,1.811c0.02,0.779-0.592,0.991-1.289,1.227c-1.124,0.21-1.339-0.6-1.895-1.025l0.052-0.082
			c0.567-0.048,1.133-0.095,2.152-0.181c-0.67-0.457-0.991-0.675-1.31-0.894c0.101-0.316,0.172-0.641,0.307-0.948
			c0.19-0.431,0.666-0.876,0.593-1.266c-0.121-0.636-0.586-1.232-0.906-1.846C54.052,82.421,53.947,81.723,53.842,81.024z"/>
		<path fill-rule="evenodd" clip-rule="evenodd" d="M39.684,80.938c0.318,0.313,0.637,0.625,0.955,0.938
			c-0.307,0.862-0.86,1.726-0.854,2.587c0.007,0.965,0.52,1.927,0.812,2.891c-1.234,0.888-1.208,1.167,0.234,1.728
			c-0.552,0.244-1.065,0.472-1.578,0.698c-2.307-2.27-2.28-4.887-1.638-7.517C37.758,81.67,38.261,80.675,39.684,80.938z"/>
		<path fill-rule="evenodd" clip-rule="evenodd" fill="#9ABE87" d="M53.854,60.083c-0.25-0.014-0.68,0.03-0.724-0.051
			c-0.7-1.306-2.396-0.692-3.509-1.153c-0.422-0.175-0.678-0.591-1.01-0.896c1.657,0.365,3.327,0.699,4.952,1.134
			C53.778,59.174,53.764,59.748,53.854,60.083z"/>
		<path fill-rule="evenodd" clip-rule="evenodd" fill="#2C2C2C" d="M106.584,21.992c-0.387,0.398-0.773,0.796-1.158,1.194
			c-0.14-0.047-0.28-0.093-0.423-0.14c0,0.671,0,1.343,0,2.014c-0.351-0.022-0.705-0.044-1.047-0.065
			C103.532,22.43,104.038,21.86,106.584,21.992z"/>
		<path fill-rule="evenodd" clip-rule="evenodd" fill="#3B3B3B" d="M99.771,67.229c0.344-0.96,1.003-1.965-0.755-2.575
			c-0.156-0.054-0.124-0.437-0.182-0.666c2.02,0.071,3.244,1.42,2.431,2.807C101.11,67.062,100.286,67.091,99.771,67.229z"/>
		<path fill-rule="evenodd" clip-rule="evenodd" fill="#383838" d="M30.46,25.228c0.33-0.958,0.999-1.967-0.762-2.572
			c-0.154-0.053-0.121-0.436-0.175-0.666c2.015,0.074,3.24,1.421,2.429,2.805C31.796,25.06,30.975,25.089,30.46,25.228z"/>
		<path fill-rule="evenodd" clip-rule="evenodd" fill="#3B3B3B" d="M99.771,49.229c0.337-0.959,1.005-1.967-0.757-2.574
			c-0.155-0.054-0.124-0.437-0.18-0.666c2.019,0.072,3.243,1.421,2.431,2.807C101.11,49.061,100.286,49.09,99.771,49.229z"/>
		<path fill-rule="evenodd" clip-rule="evenodd" fill="#AFAFAF" d="M53.239,78.579c-1.152-0.338-2.313-0.656-3.448-1.024
			c-0.401-0.131-0.739-0.382-1.104-0.578c1.92-0.435,3.503,0.108,4.94,1.14C53.542,78.218,53.391,78.398,53.239,78.579z"/>
		<path fill-rule="evenodd" clip-rule="evenodd" fill="#A0C28E" d="M53.863,42.082c-0.345-0.051-0.969-0.061-0.993-0.158
			c-0.232-0.976-1.231-0.689-1.998-0.882c-0.445-0.112-0.705-0.673-1.048-1.032C51.462,39.956,53.776,41.142,53.863,42.082z"/>
		<path fill-rule="evenodd" clip-rule="evenodd" fill="#9ABE87" d="M45.922,57.998c0.016,0.825-0.605,1.095-1.553,1.099
			c-0.813,0.003-1.624,0.023-2.437,0.036C42.891,57.962,44.314,57.782,45.922,57.998z"/>
		<path fill-rule="evenodd" clip-rule="evenodd" fill="#2C2C2C" d="M69.319,65.131c-0.005,0.779-0.012,1.558-0.017,2.337
			c-0.404-0.104-0.806-0.206-1.319-0.337c0.302-0.929-0.74-2.098,1.007-2.716C69.1,64.654,69.21,64.892,69.319,65.131z"/>
		<path fill-rule="evenodd" clip-rule="evenodd" fill="#2C2C2C" d="M69.322,47.132c-0.007,0.778-0.014,1.557-0.02,2.335
			c-0.404-0.103-0.805-0.206-1.317-0.337c0.3-0.927-0.742-2.096,1.006-2.713C69.102,46.656,69.211,46.894,69.322,47.132z"/>
		<path fill-rule="evenodd" clip-rule="evenodd" fill="#94BA80" d="M56.685,69.45c-0.103-0.572-0.35-1.162-0.248-1.712
			c0.051-0.274,0.743-0.476,1.144-0.71C57.627,67.914,57.925,68.854,56.685,69.45z"/>
		<path fill-rule="evenodd" clip-rule="evenodd" fill="#94BA80" d="M56.685,51.451c-0.103-0.573-0.35-1.163-0.249-1.713
			c0.051-0.274,0.743-0.475,1.145-0.709C57.627,49.914,57.924,50.855,56.685,51.451z"/>
		<path fill-rule="evenodd" clip-rule="evenodd" fill="#151515" d="M69.081,83.916c0.062,0.785,0.125,1.57,0.185,2.356
			c-0.38-0.026-0.76-0.053-1.197-0.083c0-0.738,0-1.425,0-2.111C68.406,84.023,68.744,83.97,69.081,83.916z"/>
		<path fill-rule="evenodd" clip-rule="evenodd" fill="#8F8F8F" d="M100.087,84.111c-0.447-0.375-0.89-0.751-1.335-1.126
			c0.781,0,1.562,0,2.435,0c0.04,0.433,0.071,0.771,0.104,1.11C100.891,84.101,100.487,84.105,100.087,84.111z"/>
		<path fill-rule="evenodd" clip-rule="evenodd" fill="#151515" d="M100.087,84.111c0.4-0.006,0.804-0.011,1.203-0.016
			c-0.137,0.806,0.738,1.946-1.175,2.168C100.104,85.546,100.096,84.829,100.087,84.111z"/>
		<path fill-rule="evenodd" clip-rule="evenodd" fill="#AFAFAF" d="M45.844,76.988c-0.462,0.181-0.906,0.403-1.391,0.527
			c-0.325,0.082-0.709,0.024-1.066,0.029C43.794,76.258,44.963,77.011,45.844,76.988z"/>
		<path fill-rule="evenodd" clip-rule="evenodd" fill="#8F8F8F" d="M69.081,83.916c-0.336,0.054-0.675,0.107-1.012,0.162
			c0.014-0.626-0.158-1.388,1.222-1.009c-0.046,0.273-0.087,0.546-0.131,0.818L69.081,83.916z"/>
		<path fill-rule="evenodd" clip-rule="evenodd" fill="#2C2C2C" d="M112.757,22.862c-0.854,0.091-1.371-0.12-1.285-0.87
			c0.685-0.051,1.469-0.261,1.588,0.6C112.958,22.682,112.856,22.772,112.757,22.862z"/>
		<path fill-rule="evenodd" clip-rule="evenodd" fill="#3B3B3B" d="M113.065,117.229c-0.018-0.624-0.178-1.325,1.102-1.262
			C114.477,116.746,114.037,117.129,113.065,117.229z"/>
		<path fill-rule="evenodd" clip-rule="evenodd" fill="#3B3B3B" d="M112.757,22.862c0.1-0.09,0.201-0.18,0.303-0.27
			c0.595,0.299,1.515,0.427,1.095,1.262C113.178,23.96,112.998,23.385,112.757,22.862z"/>
		<path fill-rule="evenodd" clip-rule="evenodd" fill="#151515" d="M69.159,83.888c0.044-0.272,0.085-0.545,0.131-0.818
			c0.41,0.001,0.816,0.002,1.227,0.003C70.587,83.875,70.32,84.334,69.159,83.888z"/>
		<path fill-rule="evenodd" clip-rule="evenodd" fill="#3B3B3B" d="M69.322,47.132c-0.111-0.238-0.22-0.477-0.331-0.715
			c0.417-0.139,0.834-0.278,1.252-0.418C69.938,46.377,69.629,46.755,69.322,47.132z"/>
		<path fill-rule="evenodd" clip-rule="evenodd" fill="#3B3B3B" d="M69.319,65.131c-0.109-0.239-0.22-0.477-0.329-0.716
			c0.418-0.139,0.835-0.278,1.253-0.417C69.937,64.375,69.628,64.753,69.319,65.131z"/>
		<path fill-rule="evenodd" clip-rule="evenodd" fill="#383838" d="M24.036,22c-0.383,0.218-0.767,0.436-1.149,0.653
			C22.542,21.66,23.393,21.941,24.036,22z"/>
		<path fill-rule="evenodd" clip-rule="evenodd" fill="#C1C1C1" d="M12.127,125.363c0.175-0.129,0.352-0.257,0.527-0.385
			c0.043,0.069,0.086,0.14,0.131,0.209c-0.221,0.058-0.44,0.115-0.662,0.173C12.124,125.361,12.127,125.363,12.127,125.363z"/>
		<path fill-rule="evenodd" clip-rule="evenodd" fill="#F8FAF7" d="M51.494,47.826c-1.579,1.198-3.157,2.397-4.736,3.595
			c-1.257,1.066-2.243,0.232-3.272-0.285l-0.048,0.056c0,0,0.051-0.056,0.051-0.055c-0.328-0.228-0.657-0.457-0.984-0.685
			c-0.122-0.145-0.243-0.288-0.366-0.433c0.023-0.642,0.045-1.285,0.068-1.927c1.106,0.144,2.213,0.288,3.319,0.432
			c0.6,0.006,1.2,0.012,1.799,0.018c-0.19-0.321-0.381-0.642-0.572-0.963c0.22-0.157,0.441-0.314,0.662-0.472
			c2.135-0.118,2.744-1.671,4.022-2.595c0.392-0.004,0.785-0.009,1.176-0.014c0.02,0.224,0.04,0.447,0.06,0.671
			c-0.005,0.246-0.011,0.493-0.017,0.739c-0.31,0.348-0.668,0.677-0.912,1.051C51.577,47.217,51.572,47.536,51.494,47.826z"/>
		<path fill-rule="evenodd" clip-rule="evenodd" fill="#DFEAD9" d="M51.437,44.513c-1.279,0.924-1.888,2.477-4.022,2.595
			c0.842-0.761,1.635-1.563,2.556-2.26C50.294,44.604,50.939,44.617,51.437,44.513z"/>
		<path fill-rule="evenodd" clip-rule="evenodd" fill="#86B16E" d="M43.485,51.136c1.03,0.518,2.016,1.351,3.272,0.285
			c0.192,0.117,0.385,0.234,0.775,0.473c-0.877,0.337-1.601,0.615-2.326,0.892C45.113,51.932,42.83,52.465,43.485,51.136z"/>
		<path fill-rule="evenodd" clip-rule="evenodd" fill="#B5D0A7" d="M42.206,48.093c-0.022,0.643-0.044,1.285-0.068,1.927
			c-1.098,0.125-1.193-0.362-1.188-1.055C40.958,48.234,41.289,47.949,42.206,48.093z"/>
		<path fill-rule="evenodd" clip-rule="evenodd" fill="#A0C28E" d="M51.494,47.826c0.078-0.291,0.083-0.609,0.25-0.865
			c0.244-0.375,0.602-0.703,0.912-1.051c0.376-0.02,0.754-0.039,1.129-0.058c0.15,0.637,0.147,1.14-0.959,1.273
			C52.346,47.183,51.936,47.582,51.494,47.826z"/>
		<path fill-rule="evenodd" clip-rule="evenodd" fill="#DFEAD9" d="M46.752,47.58c0.19,0.321,0.381,0.642,0.572,0.963
			c-0.599-0.006-1.199-0.012-1.799-0.018C45.934,48.209,46.343,47.895,46.752,47.58z"/>
		<path fill-rule="evenodd" clip-rule="evenodd" fill="#DFEAD9" d="M53.785,45.852c-0.375,0.019-0.753,0.038-1.129,0.058
			c0.006-0.247,0.011-0.493,0.017-0.739c0.378,0.026,0.756,0.052,1.134,0.078C53.799,45.45,53.792,45.651,53.785,45.852z"/>
		<path fill-rule="evenodd" clip-rule="evenodd" fill="#86B16E" d="M42.504,50.453c0.327,0.228,0.656,0.457,0.984,0.685
			C42.898,51.138,41.897,51.497,42.504,50.453z"/>
		<path fill-rule="evenodd" clip-rule="evenodd" fill="#A0C28E" d="M53.806,45.249c-0.378-0.026-0.756-0.052-1.134-0.078
			c-0.02-0.224-0.04-0.447-0.06-0.671C53.011,44.75,53.409,44.999,53.806,45.249z"/>
		<path fill-rule="evenodd" clip-rule="evenodd" fill="#F8FAF7" d="M42.504,68.453c-0.122-0.145-0.244-0.288-0.366-0.433
			c0.023-0.643,0.045-1.285,0.067-1.928c1.107,0.144,2.213,0.287,3.32,0.432c0.601,0.006,1.2,0.012,1.8,0.018
			c-0.191-0.321-0.382-0.642-0.574-0.963c0.22-0.157,0.442-0.314,0.661-0.472c2.137-0.116,2.744-1.671,4.023-2.595
			c0.393-0.004,0.785-0.009,1.178-0.013c0.02,0.223,0.038,0.447,0.058,0.671c-0.005,0.246-0.011,0.493-0.017,0.739
			c-0.31,0.348-0.668,0.677-0.912,1.051c-0.166,0.256-0.171,0.575-0.248,0.865c-1.58,1.198-3.159,2.397-4.738,3.596
			c-1.257,1.065-2.243,0.231-3.274-0.285l-0.048,0.056c0,0,0.051-0.056,0.051-0.055C43.159,68.909,42.832,68.682,42.504,68.453z"/>
		<path fill-rule="evenodd" clip-rule="evenodd" fill="#DFEAD9" d="M51.436,62.513c-1.279,0.924-1.886,2.479-4.023,2.595
			c0.844-0.761,1.635-1.563,2.558-2.26C50.294,62.603,50.938,62.617,51.436,62.513z"/>
		<path fill-rule="evenodd" clip-rule="evenodd" fill="#86B16E" d="M43.484,69.137c1.031,0.517,2.017,1.351,3.274,0.285
			c0.193,0.117,0.385,0.234,0.775,0.473c-0.877,0.337-1.603,0.614-2.326,0.892C45.113,69.933,42.829,70.466,43.484,69.137z"/>
		<path fill-rule="evenodd" clip-rule="evenodd" fill="#A0C28E" d="M51.496,65.826c0.076-0.291,0.082-0.609,0.248-0.865
			c0.244-0.375,0.602-0.703,0.912-1.051c0.376-0.019,0.754-0.038,1.13-0.057c0.15,0.637,0.146,1.139-0.959,1.272
			C52.348,65.183,51.937,65.582,51.496,65.826z"/>
		<path fill-rule="evenodd" clip-rule="evenodd" fill="#B5D0A7" d="M42.205,66.093c-0.022,0.643-0.043,1.285-0.067,1.928
			c-1.1,0.125-1.195-0.362-1.189-1.056C40.957,66.234,41.287,65.947,42.205,66.093z"/>
		<path fill-rule="evenodd" clip-rule="evenodd" fill="#DFEAD9" d="M46.751,65.579c0.191,0.321,0.382,0.642,0.574,0.963
			c-0.6-0.006-1.2-0.012-1.8-0.018C45.934,66.209,46.343,65.895,46.751,65.579z"/>
		<path fill-rule="evenodd" clip-rule="evenodd" fill="#DFEAD9" d="M53.785,63.853c-0.376,0.019-0.753,0.038-1.13,0.057
			c0.006-0.247,0.011-0.493,0.017-0.739c0.378,0.026,0.756,0.052,1.134,0.078C53.8,63.449,53.793,63.651,53.785,63.853z"/>
		<path fill-rule="evenodd" clip-rule="evenodd" fill="#86B16E" d="M42.504,68.453c0.328,0.229,0.655,0.456,0.983,0.685
			C42.899,69.136,41.894,69.5,42.504,68.453z"/>
		<path fill-rule="evenodd" clip-rule="evenodd" fill="#A0C28E" d="M53.806,63.248c-0.378-0.026-0.756-0.052-1.134-0.078
			c-0.02-0.224-0.038-0.448-0.058-0.671C53.012,62.749,53.41,62.998,53.806,63.248z"/>
		<path fill-rule="evenodd" clip-rule="evenodd" fill="#FCFCFC" d="M40.597,87.354c-0.292-0.964-0.805-1.926-0.812-2.891
			c-0.006-0.861,0.547-1.725,0.854-2.587c0.523-0.356,1.14-0.658,1.551-1.082c0.864-0.891,1.8-1.611,3.359-1.565
			c1.119,1.065,2.877,1.103,3.411,0.072c0.713,0.238,1.428,0.478,2.143,0.717c-0.084,0.904,0.631,1.016,1.536,0.941l0.007,0.004
			c0.324,0.692,0.648,1.385,0.974,2.078c-0.01,1.215-0.034,2.431-0.019,3.646c0.004,0.17,0.204,0.34,0.313,0.51
			c-0.198,0.352-0.396,0.704-0.594,1.057l-0.052,0.082c-1.647,1.46-3.412,2.896-6.157,2.651c-2.587-0.231-4.913-0.993-6.041-3.077
			C40.961,87.709,40.758,87.538,40.597,87.354z"/>
		<path fill-rule="evenodd" clip-rule="evenodd" fill="#F8FAF7" d="M48.96,79.301c-0.534,1.03-2.292,0.993-3.411-0.072
			C46.686,79.253,47.823,79.276,48.96,79.301z"/>
		<path fill-rule="evenodd" clip-rule="evenodd" fill="#BFBFBF" d="M53.619,83.041c-0.325-0.693-0.649-1.386-0.974-2.078
			c0.398,0.021,0.797,0.041,1.197,0.062c0.104,0.698,0.209,1.396,0.313,2.096C53.978,83.094,53.798,83.067,53.619,83.041z"/>
		<path fill-rule="evenodd" clip-rule="evenodd" fill="#BFBFBF" d="M52.638,80.959c-0.904,0.074-1.62-0.037-1.536-0.941
			c0.45,0,0.902,0,1.461,0C52.591,80.354,52.616,80.656,52.638,80.959z"/>
		<path fill-rule="evenodd" clip-rule="evenodd" fill="#F8FAF7" d="M53.619,83.041c0.179,0.026,0.358,0.053,0.537,0.079
			c0.32,0.613,0.786,1.21,0.906,1.846c0.073,0.39-0.403,0.835-0.593,1.266c-0.135,0.308-0.206,0.632-0.307,0.948
			c-0.083,0.006-0.166,0.011-0.248,0.018c-0.109-0.17-0.309-0.34-0.313-0.51C53.585,85.472,53.609,84.256,53.619,83.041z"/>
		<path fill-rule="evenodd" clip-rule="evenodd" fill="#0C0C0C" d="M53.914,87.197c0.082-0.007,0.166-0.012,0.248-0.018
			c0.319,0.219,0.64,0.437,1.31,0.894c-1.019,0.086-1.584,0.133-2.152,0.181C53.518,87.901,53.716,87.549,53.914,87.197z"/>
	</g>
</g>
</svg>
